<?xml version="1.0" standalone="no"?>
<!DOCTYPE svg PUBLIC "-//W3C//DTD SVG 20010904//EN" "http://www.w3.org/TR/2001/REC-SVG-20010904/DTD/svg10.dtd">
<!-- Created using Krita: http://krita.org -->
<svg xmlns="http://www.w3.org/2000/svg" 
    xmlns:xlink="http://www.w3.org/1999/xlink"
    xmlns:krita="http://krita.org/namespaces/svg/krita"
    xmlns:sodipodi="http://sodipodi.sourceforge.net/DTD/sodipodi-0.dtd"
    width="96pt"
    height="96pt"
    viewBox="0 0 96 96">
<defs/>
<path id="shape0" transform="matrix(1.66135883888227 0 0 1.66135883888227 0.164958824551426 15.1183864350296)" opacity="0.6" fill="#90e9fb" fill-rule="evenodd" d="M0 0L28.7927 8.0026L28.7927 48L0 39.9974Z"/><path id="shape01" transform="matrix(1.66135880220342 0 0 1.66135880220342 48 15.1183873153219)" opacity="0.6" fill="#77d8ed" fill-rule="evenodd" d="M0 8.00131L28.7603 0L28.7603 39.9987L0 48Z"/><path id="shape1" transform="matrix(1.66135883888227 0 0 1.66135883888227 0.152865440190645 1.36233561962146)" opacity="0.6" fill="#72d2e5" fill-rule="evenodd" d="M0 8.28L28.8 16.32L57.6 8.28L28.8 0C29.12 0 19.52 2.76 0 8.28Z"/><path id="shape01" transform="matrix(1.66135877329282 0 0 1.66135877329282 0.152867329166856 67.8366255452425)" opacity="0.6" fill="#65d3e9" fill-rule="evenodd" d="M0 8.28L28.8 16.32L57.6 8.28L28.8 0C29.12 0 19.52 2.76 0 8.28Z"/><path id="shape02" transform="matrix(0.959974954177112 0 0 0.959974954177112 13.6519878396746 28.9980295366848)" fill="#eb7e67" fill-rule="evenodd" d="M0 0L28.7927 8.0026L28.7927 48L0 39.9974Z"/><path id="shape03" transform="matrix(0.959974932983151 0 0 0.959974932983151 41.2922786580965 28.9980300453399)" fill="#df5b44" fill-rule="evenodd" d="M0 8.00131L28.7603 0L28.7603 39.9987L0 48Z"/><path id="shape11" transform="matrix(0.959974954177112 0 0 0.959974954177112 13.6449999777956 21.0494371302039)" fill="#87d44d" fill-rule="evenodd" d="M0 8.28L28.8 16.32L57.6 8.28L28.8 0C29.12 0 19.52 2.76 0 8.28Z"/><path id="shape04" transform="matrix(0.615674956319025 0 0 0.615674956319025 48.1626862535946 41.2716967261547)" fill="#eb7e67" fill-rule="evenodd" d="M0 0L28.7927 8.0026L28.7927 48L0 39.9974Z"/><path id="shape011" transform="matrix(0.615674942726388 0 0 0.615674942726388 65.8896433666208 41.2716970523781)" fill="#df5b44" fill-rule="evenodd" d="M0 8.00131L28.7603 0L28.7603 39.9987L0 48Z"/><path id="shape11" transform="matrix(0.615674956319025 0 0 0.615674956319025 48.1582046246329 36.1739082251488)" fill="#c34ee3" fill-rule="evenodd" d="M0 8.28L28.8 16.32L57.6 8.28L28.8 0C29.12 0 19.52 2.76 0 8.28Z"/><path id="shape05" transform="matrix(1.66135877329282 0 0 1.66135877329282 0.152867329166856 1.04999927461869)" opacity="0.5" fill="#72d2e5" fill-rule="evenodd" d="M0 8.28L28.8 16.32L57.6 8.28L28.8 0C29.12 0 19.52 2.76 0 8.28Z"/><path id="shape06" transform="matrix(1.66135883888227 0 0 1.66135883888227 0.191867958450011 14.8857960787879)" opacity="0.3" fill="#90e9fb" fill-rule="evenodd" d="M0 0L28.7927 8.0026L28.7927 48L0 39.9974Z"/><path id="shape07" transform="matrix(1.66135880220342 0 0 1.66135880220342 48.0269091338986 14.8857969590803)" opacity="0.3" fill="#77d8ed" fill-rule="evenodd" d="M0 8.00131L28.7603 0L28.7603 39.9987L0 48Z"/>
</svg>
