<?xml version="1.0" standalone="no"?>
<!DOCTYPE svg PUBLIC "-//W3C//DTD SVG 20010904//EN" "http://www.w3.org/TR/2001/REC-SVG-20010904/DTD/svg10.dtd">
<!-- Created using Krita: http://krita.org -->
<svg xmlns="http://www.w3.org/2000/svg" 
    xmlns:xlink="http://www.w3.org/1999/xlink"
    xmlns:krita="http://krita.org/namespaces/svg/krita"
    xmlns:sodipodi="http://sodipodi.sourceforge.net/DTD/sodipodi-0.dtd"
    width="32.112pt"
    height="60.768pt"
    viewBox="0 0 32.112 60.768">
<defs>
  <linearGradient id="gradient0" gradientUnits="objectBoundingBox" x1="0.510000005153374" y1="0.44874428545286" x2="0.509999995048716" y2="0.994900633119853" spreadMethod="pad">
   <stop stop-color="#a48263" offset="0.458563535911602" stop-opacity="0.141176470588235"/>
   <stop stop-color="#cc4cff" offset="1" stop-opacity="0.168627450980392"/>
  </linearGradient>
  <linearGradient id="gradient1" gradientUnits="objectBoundingBox" x1="0.501346011345404" y1="1.00345757350166" x2="0.504133180035421" y2="-0.0015784394688878" spreadMethod="pad">
   <stop stop-color="#fb44ff" offset="0.187845303867403" stop-opacity="0.250980392156863"/>
   <stop stop-color="#be75ff" offset="0.723756906077348" stop-opacity="0.5"/>
  </linearGradient>
 </defs>
<path id="shape0" transform="translate(-49.955548430167, -31.5353664881671)" opacity="0.44" fill="#fbfffa" fill-rule="evenodd" d="M61.1813 41.1788L70.8293 41.1788L70.8293 55.1066L72.8124 55.1066L73.2117 55.1215L73.5844 55.195L73.9322 55.3268L74.2569 55.517L74.56 55.7654L74.8433 56.0721L75.1084 56.4369L75.3571 56.8598L75.591 57.3406L75.8118 57.8794L76.0213 58.4761L76.221 59.1305L76.4126 59.8427L76.598 60.6125L76.7786 61.4398L76.9563 62.3247L77.1327 63.267L77.3095 64.2667L77.4884 65.3237L77.671 66.4379L77.8591 67.6092L78.0543 68.8376L78.2583 70.1231L78.4729 71.4654L78.6996 72.8647L78.9402 74.3208L79.1963 75.8336L79.4697 77.403L79.7621 79.029L80.075 80.7116L80.4103 82.4506L80.7695 84.246L81.1544 86.0977L81.5667 88.0057L82.008 89.9698L81.3669 91.2451L79.8192 91.7734L66.4298 91.7734L66.4272 91.7743L52.2288 91.7743L50.6811 91.246L50.04 89.9707L50.4813 88.0066L50.8936 86.0986L51.2785 84.2469L51.6377 82.4515L51.973 80.7125L52.2859 79.0299L52.5783 77.4039L52.8517 75.8344L53.1078 74.3217L53.3484 72.8656L53.5751 71.4663L53.7897 70.124L53.9937 68.8385L54.1889 67.6101L54.377 66.4387L54.5596 65.3245L54.7385 64.2676L54.9153 63.2679L55.0917 62.3256L55.2694 61.4407L55.45 60.6133L55.6354 59.8435L55.827 59.1314L56.0267 58.477L56.2362 57.8803L56.457 57.3415L56.6909 56.8606L56.9396 56.4378L57.2047 56.073L57.488 55.7663L57.7911 55.5178L58.1158 55.3276L58.4636 55.1958L58.8363 55.1224L59.2356 55.1075L61.1813 55.1075L61.1813 41.1788"/><path id="shape1" transform="translate(12.2989463433521, 0.0990585970723892)" fill="#a48263" fill-rule="evenodd" d="M0.715819 1.11022e-16L6.48418 0C6.87952 2.42065e-17 7.2 0.320483 7.2 0.715819C7.18439 4.94261 6.49979 9.16939 6.14969 13.3962C6.14969 13.7915 5.20704 14.112 4.81171 14.112L2.63749 14.1194C2.24216 14.1194 1.29951 13.5112 1.29951 13.1159C0.971718 8.98252 0.0813258 5.18367 0 0.715819C5.55112e-17 0.320483 0.320483 8.68158e-17 0.715819 1.11022e-16Z"/><circle id="shape2" transform="translate(13.692451569833, 1.19260563726842)" r="0.432000000000002" cx="0.432000000000002" cy="0.432000000000002" fill="#86694f" fill-rule="evenodd"/><ellipse id="shape3" transform="translate(16.140451569833, 4.36060563726843)" rx="0.576000000000001" ry="0.575999999999997" cx="0.576000000000001" cy="0.575999999999997" fill="#86694f" fill-rule="evenodd"/><circle id="shape4" transform="translate(13.548451569833, 8.96860563726843)" r="0.431999999999999" cx="0.431999999999999" cy="0.431999999999999" fill="#86694f" fill-rule="evenodd"/><circle id="shape5" transform="translate(17.292451569833, 12.2806056372684)" r="0.359999999999999" cx="0.359999999999999" cy="0.359999999999999" fill="#86694f" fill-rule="evenodd"/><path id="shape0" transform="matrix(1.00000001584679 0 0 1.00000001584679 12.2829476131142 0.0989392930963292)" fill="url(#gradient0)" fill-rule="evenodd" d="M0.715819 1.11022e-16L6.48418 0C6.87952 2.42065e-17 7.2 0.320483 7.2 0.715819C7.18439 4.94261 6.49979 9.16939 6.14969 13.3962C6.14969 13.7915 5.20704 14.112 4.81171 14.112L2.63749 14.1194C2.24216 14.1194 1.29951 13.5112 1.29951 13.1159C0.971718 8.98252 0.0813258 5.18367 0 0.715819C5.55112e-17 0.320483 0.320483 8.68158e-17 0.715819 1.11022e-16Z"/><path id="shape01" transform="matrix(0.999999960793339 0 0 0.999999960793339 0.203549130243075 9.78556269058428)" opacity="0.15" fill="#fbfffa" fill-rule="evenodd" d="M11.1413 0L20.7893 0L20.7893 13.9278L22.7724 13.9278L23.1717 13.9427L23.5444 14.0162L23.8922 14.148L24.2169 14.3382L24.52 14.5866L24.8033 14.8933L25.0684 15.2581L25.3171 15.681L25.551 16.1618L25.7718 16.7006L25.9813 17.2973L26.181 17.9517L26.3726 18.6639L26.558 19.4337L26.7386 20.261L26.9163 21.1459L27.0927 22.0882L27.2695 23.0879L27.4484 24.1449L27.631 25.2591L27.8191 26.4304L28.0143 27.6588L28.2183 28.9443L28.4329 30.2866L28.6596 31.6859L28.9002 33.142L29.1563 34.6548L29.4297 36.2242L29.7221 37.8502L30.035 39.5328L30.3703 41.2718L30.7295 43.0672L31.1144 44.9189L31.5267 46.8269L31.968 48.791L31.3269 50.0663L29.7792 50.5946L16.3898 50.5946L16.3872 50.5955L2.1888 50.5955L0.6411 50.0672L0 48.7919L0.4413 46.8278L0.8536 44.9198L1.2385 43.0681L1.5977 41.2727L1.933 39.5337L2.2459 37.8511L2.5383 36.2251L2.8117 34.6556L3.0678 33.1429L3.3084 31.6868L3.5351 30.2875L3.7497 28.9452L3.9537 27.6597L4.1489 26.4313L4.337 25.2599L4.5196 24.1457L4.6985 23.0888L4.8753 22.0891L5.0517 21.1468L5.2294 20.2619L5.41 19.4345L5.5954 18.6647L5.787 17.9526L5.9867 17.2982L6.1962 16.7015L6.417 16.1627L6.6509 15.6818L6.8996 15.259L7.1647 14.8942L7.448 14.5875L7.7511 14.339L8.0758 14.1488L8.4236 14.017L8.7963 13.9436L9.1956 13.9287L11.1413 13.9287L11.1413 0"/><circle id="shape6" transform="translate(14.844451569833, 35.4646056372684)" r="1.872" cx="1.872" cy="1.872" fill="#a90ed3" fill-rule="evenodd"/><ellipse id="shape7" transform="translate(20.604451569833, 37.6246056372684)" rx="1.36799999999999" ry="1.152" cx="1.36799999999999" cy="1.152" fill="#a90ed3" fill-rule="evenodd"/><ellipse id="shape8" transform="translate(10.524451569833, 37.9126056372684)" rx="1.224" ry="1.152" cx="1.224" cy="1.152" fill="#a90ed3" fill-rule="evenodd"/><ellipse id="shape9" transform="translate(10.812451569833, 28.4086056372684)" rx="1.728" ry="1.8" cx="1.728" cy="1.8" fill="#a90ed3" fill-rule="evenodd"/><ellipse id="shape10" transform="translate(16.140451569833, 20.0566056372684)" rx="1.15199999999999" ry="1.08000000000001" cx="1.15199999999999" cy="1.08000000000001" fill="#a90ed3" fill-rule="evenodd"/><ellipse id="shape11" transform="translate(21.180451569833, 27.6886056372684)" rx="0.432000000000002" ry="0.359999999999999" cx="0.432000000000002" cy="0.359999999999999" fill="#a90ed3" fill-rule="evenodd"/><ellipse id="shape12" transform="translate(10.380451569833, 37.3366056372684)" rx="0.504000000000001" ry="0.504000000000005" cx="0.504000000000001" cy="0.504000000000005" fill="#a90ed3" fill-rule="evenodd"/><path id="shape02" transform="matrix(0.999999973747066 0 0 0.999999973747066 3.03842207468826 37.9356286382591)" fill="#a90ed3" fill-rule="evenodd" d="M3.00889 4.03382C2.66086 4.32781 2.24291 8.77742 2.09448 9.45971L1.81437 11.1484L1.50149 12.6144L1.16536 14.1329L0.804227 15.7039L0.416358 17.3273L0 19.003L0.487619 20.008L1.70625 20.4365L12.1268 20.3095L13.1932 20.2785L14.131 20.2695L24.5516 20.3966L25.7702 19.968L26.2578 18.963L25.8415 17.2873L25.4536 15.6639L25.0925 14.0929L24.7564 12.5744L24.4435 11.1085L24.1521 9.69523L23.8805 8.33475L23.6268 7.02713L23.3895 5.77247L23.1666 4.57086L22.9174 3.22303L22.912 2.64098L22.498 2.01098C19.818 -1.09372 12.9835 0.251332 11.5111 0.52091C1.89288 1.29961 10.6191 0.391888 3.00889 4.03382Z"/><path id="shape03" transform="matrix(0.999999973747066 0 0 0.999999973747066 3.17609269542324 38.4231164947626)" fill="#be75ff" fill-rule="evenodd" d="M2.3608 6.63075C2.30077 7.39274 2.24291 8.15602 2.09448 8.83831L1.81437 10.527L1.50149 11.993L1.16536 13.5115L0.804227 15.0825L0.416358 16.7059L0 18.3816L0.487619 19.3866L1.70625 19.8151L11.7144 19.7108L12.7808 19.6798L13.7186 19.6708L24.1392 19.7979L25.3578 19.3693L25.8454 18.3643L25.4291 16.6886L25.0412 15.0652L24.6801 13.4942L24.344 11.9757L24.0311 10.5098L23.7397 9.09657L23.4681 7.73609L23.2144 6.42847L22.9771 5.17381L22.8284 3.77349L22.7204 2.29749L22.4324 1.61349L21.9057 1.43505C19.2316 3.20889 13.3117 1.09524 9.337 0.491628C3.98767 -0.519273 3.26806 -0.607757 2.3608 6.63075Z"/><path id="shape13" transform="translate(3.06187317262051, 40.8239297281523)" fill="#e449fc" fill-rule="evenodd" d="M2.28758 5.34168C2.13755 5.69866 2.24291 5.88533 2.09448 6.56761L1.81437 8.25635L1.50149 9.72227L1.16536 11.2408L0.804227 12.8118L0.416358 14.4352L0 16.1109L0.487619 17.1159L1.70625 17.5444L12.1268 17.4174L13.1932 17.3863L14.131 17.3774C17.6045 17.4198 21.0781 17.4621 24.5516 17.5045L25.7702 17.0759L26.2578 16.0709L25.8415 14.3952L25.4536 12.7718L25.0925 11.2008L24.7564 9.68231L24.4435 8.21638L24.1521 6.80314L23.8805 5.44266L23.6268 4.13504L23.3895 2.88038L23.1666 1.67877L22.9174 0.330931L22.8919 0C22.7795 0.10649 22.6883 0.180736 22.6183 0.222739C18.4393 8.13833 10.8832 13.5415 2.28758 5.34168Z"/><rect id="shape14" transform="translate(10.0173574931779, 5.54953690112651)" opacity="0.62" fill="#fbfffa" fill-rule="evenodd" width="11.9581881533101" height="4.16619322141273" rx="1.18191394538528" ry="1.42160278745641"/><path id="shape04" transform="matrix(0.707949950499937 0.706262561074 -0.706262561074 0.707949950499937 12.487984010888 27.6716335414041)" fill="transparent" fill-rule="evenodd" d="M3.64176 1.90703L3.61874 1.74469L3.56013 1.50028L3.48048 1.26821L3.38114 1.05017L3.26353 0.847881L3.12899 0.663036L2.97892 0.497315L2.8147 0.352443L2.63769 0.230083L2.44928 0.131975L2.25085 0.0597835L2.04379 0.015232L1.82947 0L1.61514 0.015232L1.40808 0.0597835L1.20965 0.131975L1.02124 0.230083L0.844234 0.352443L0.680014 0.497315L0.529939 0.663036L0.395403 0.847881L0.277788 1.05017L0.178452 1.26821L0.0988009 1.50028L0.0401927 1.74469L0.00402176 1.99975L0 2.08564L0.0724789 1.89479L0.157571 1.69933L0.251267 1.51101L0.353492 1.33114L0.464171 1.16102L0.58323 1.00197L0.710619 0.855314L0.846263 0.722346L0.990076 0.604397L1.14201 0.502764L1.30198 0.418759L1.46992 0.35371L1.64577 0.308929L1.82947 0.285715L1.99529 0.291835L2.15608 0.319873L2.31168 0.36856L2.46193 0.436601L2.60671 0.522727L2.74586 0.625658L2.87922 0.74408L3.00667 0.876743L3.12803 1.02235L3.2432 1.17963L3.35198 1.34727L3.45426 1.52403L3.54988 1.70858L3.6387 1.89969L3.64176 1.90703"/><path id="shape05" transform="matrix(0.707949924320739 0.7062625349572 -0.7062625349572 0.707949924320739 16.7534896533563 34.7307303674654)" fill="transparent" fill-rule="evenodd" d="M3.64176 1.70786L3.61874 1.56247L3.56013 1.34359L3.48048 1.13576L3.38114 0.94049L3.26353 0.759328L3.12899 0.593788L2.97892 0.445375L2.8147 0.315634L2.63769 0.206053L2.44928 0.118191L2.25085 0.0535397L2.04379 0.0136412L1.82947 0L1.61514 0.0136412L1.40808 0.0535397L1.20965 0.118191L1.02124 0.206053L0.844234 0.315634L0.680014 0.445375L0.529939 0.593788L0.395403 0.759328L0.277788 0.94049L0.178452 1.13576L0.0988009 1.34359L0.0401927 1.56247L0.00402176 1.79089L0 1.86781L0.0724789 1.6969L0.157571 1.52185L0.251267 1.3532L0.353492 1.19211L0.464171 1.03976L0.58323 0.897324L0.710619 0.765984L0.846263 0.646904L0.990076 0.541273L1.14201 0.450255L1.30198 0.375024L1.46992 0.316768L1.64577 0.276664L1.82947 0.255875L1.99529 0.261356L2.15608 0.286465L2.31168 0.330067L2.46193 0.391002L2.60671 0.468133L2.74586 0.560314L2.87922 0.666368L3.00667 0.785175L3.12803 0.915575L3.2432 1.05643L3.35198 1.20656L3.45426 1.36486L3.54988 1.53013L3.6387 1.70129L3.64176 1.70786"/><path id="shape06" transform="matrix(0.904691767238057 0.426066540573305 -0.426066540573305 0.904691767238057 21.4418748431218 37.1595823267463)" fill="transparent" fill-rule="evenodd" d="M2.66706 1.26444L2.6502 1.1568L2.60727 0.994747L2.54894 0.840877L2.47619 0.696306L2.39006 0.56218L2.29153 0.43962L2.18162 0.32974L2.06136 0.233684L1.93172 0.152554L1.79374 0.0875045L1.64842 0.0396389L1.49678 0.0100995L1.33982 0L1.18285 0.0100995L1.03121 0.0396389L0.885892 0.0875045L0.747909 0.152554L0.618278 0.233684L0.498011 0.32974L0.388103 0.43962L0.289575 0.56218L0.203439 0.696306L0.13069 0.840877L0.0723572 0.994747L0.0294353 1.1568L0.00294535 1.32591L0 1.38286L0.0530802 1.25633L0.115398 1.12672L0.184016 1.00186L0.258881 0.882597L0.339937 0.769802L0.427131 0.664347L0.520425 0.567108L0.619764 0.478945L0.725086 0.40074L0.836355 0.333353L0.95351 0.277655L1.0765 0.234524L1.20529 0.204832L1.33982 0.189441L1.46126 0.193499L1.57901 0.212089L1.69297 0.24437L1.803 0.289484L1.90903 0.346589L2.01094 0.414837L2.10861 0.493356L2.20195 0.581316L2.29082 0.67786L2.37517 0.782144L2.45484 0.893295L2.52974 1.01049L2.59977 1.13285L2.66482 1.25958L2.66706 1.26444"/><path id="shape07" transform="matrix(0.980561233042915 0.196213073464969 -0.196213073464969 0.980561233042915 18.5441270200693 38.7333100438345)" fill="transparent" fill-rule="evenodd" d="M2.28474 0.850071L2.27029 0.777706L2.23352 0.668759L2.18355 0.565314L2.12123 0.46812L2.04744 0.377948L1.96304 0.295552L1.86888 0.221681L1.76586 0.157104L1.65481 0.102561L1.53661 0.0588284L1.41212 0.0266489L1.28222 0.0067898L1.14776 0L1.01329 0.0067898L0.883386 0.0266489L0.758899 0.0588284L0.640696 0.102561L0.529648 0.157104L0.426621 0.221681L0.332468 0.295552L0.248064 0.377948L0.174276 0.46812L0.111956 0.565314L0.0619848 0.668759L0.0252157 0.777706L0.00252313 0.891397L0 0.929684L0.0454711 0.844619L0.0988557 0.757483L0.157637 0.673541L0.22177 0.593362L0.291207 0.517531L0.365902 0.446634L0.445822 0.381261L0.530921 0.32199L0.621145 0.269414L0.716463 0.22411L0.816824 0.186665L0.922184 0.157668L1.03251 0.137707L1.14776 0.127359L1.25179 0.130088L1.35266 0.142585L1.45028 0.164288L1.54454 0.194617L1.63537 0.233008L1.72267 0.278891L1.80634 0.331679L1.8863 0.390813L1.96243 0.455719L2.03469 0.525828L2.10294 0.600554L2.1671 0.679343L2.22709 0.761604L2.28282 0.846804L2.28474 0.850071"/><path id="shape08" transform="matrix(0.90469177232278 0.426066542967966 -0.426066542967966 0.90469177232278 11.2084512927542 37.4806052602196)" fill="transparent" fill-rule="evenodd" d="M2.02413 0.820263L2.01134 0.750435L1.97876 0.645308L1.93449 0.545491L1.87928 0.451705L1.81391 0.364695L1.73913 0.285189L1.65571 0.213908L1.56445 0.151595L1.46606 0.0989643L1.36134 0.0567656L1.25105 0.0257144L1.13596 0.00655171L1.01684 0L0.89771 0.00655171L0.782625 0.0257144L0.672337 0.0567656L0.567617 0.0989643L0.469235 0.151595L0.37796 0.213908L0.294546 0.285189L0.21977 0.364695L0.154398 0.451705L0.0991856 0.545491L0.0549146 0.645308L0.0223396 0.750435L0.00223534 0.860139L0 0.897084L0.0402846 0.815002L0.08758 0.730922L0.139657 0.649923L0.196475 0.572555L0.257991 0.499383L0.324166 0.430973L0.39497 0.367892L0.470363 0.310699L0.550296 0.259967L0.634742 0.216251L0.723655 0.180119L0.816997 0.15214L0.914741 0.132878L1.01684 0.122893L1.10901 0.125526L1.19837 0.137586L1.28486 0.158527L1.36837 0.187793L1.44884 0.224838L1.52618 0.269111L1.6003 0.320048L1.67114 0.377109L1.73859 0.439739L1.80261 0.507389L1.86307 0.579495L1.91992 0.655521L1.97307 0.734898L2.02243 0.81711L2.02413 0.820263"/><path id="shape09" transform="matrix(0.90469177232278 0.426066542967966 -0.426066542967966 0.90469177232278 10.6330421796059 37.2169388787657)" fill="transparent" fill-rule="evenodd" d="M0.91458 0.553868L0.908799 0.506718L0.894077 0.435733L0.874075 0.368333L0.849128 0.305006L0.819592 0.246254L0.785805 0.192569L0.748115 0.144437L0.706875 0.102362L0.66242 0.0668238L0.615104 0.0383299L0.565271 0.0173632L0.513271 0.00442392L0.459447 0L0.405619 0.00442392L0.353619 0.0173632L0.303787 0.0383299L0.256471 0.0668238L0.212018 0.102362L0.170776 0.144437L0.133087 0.192569L0.0993002 0.246254L0.0697627 0.305006L0.0448158 0.368333L0.0248125 0.435733L0.0100939 0.506718L0.00101001 0.580794L0 0.60574L0.0182021 0.550315L0.0395719 0.493542L0.0631022 0.438849L0.0887747 0.386608L0.11657 0.337199L0.146471 0.291007L0.178463 0.248413L0.212528 0.209794L0.248644 0.175538L0.2868 0.14602L0.326975 0.121622L0.36915 0.102729L0.413314 0.0897234L0.459447 0.0829816L0.501091 0.0847591L0.541469 0.0929022L0.580548 0.107042L0.618279 0.126804L0.654639 0.151818L0.689586 0.181713L0.723078 0.216107L0.755086 0.254636L0.785561 0.296926L0.814486 0.342606L0.841806 0.391294L0.867491 0.442629L0.891505 0.496227L0.913812 0.551739L0.91458 0.553868"/><path id="shape010" transform="matrix(0.90469177232278 0.426066542967966 -0.426066542967966 0.90469177232278 16.717797876355 19.6188958736313)" fill="transparent" fill-rule="evenodd" d="M2.32036 1.26444L2.3057 1.1568L2.26835 0.994747L2.2176 0.840877L2.15431 0.696306L2.07937 0.56218L1.99365 0.43962L1.89803 0.32974L1.7934 0.233684L1.68061 0.152554L1.56057 0.0875045L1.43414 0.0396389L1.30221 0.0100995L1.16565 0L1.02909 0.0100995L0.897161 0.0396389L0.770733 0.0875045L0.650687 0.152554L0.537907 0.233684L0.433274 0.32974L0.337653 0.43962L0.251933 0.56218L0.176994 0.696306L0.113701 0.840877L0.0629514 0.994747L0.025609 1.1568L0.00256248 1.32591L0 1.38286L0.0461802 1.25633L0.100397 1.12672L0.160095 1.00186L0.225229 0.882597L0.295748 0.769802L0.371607 0.664347L0.452774 0.567108L0.5392 0.478945L0.630831 0.40074L0.727636 0.333353L0.829561 0.277655L0.936564 0.234524L1.04861 0.204832L1.16565 0.189441L1.27131 0.193499L1.37375 0.212089L1.4729 0.24437L1.56862 0.289484L1.66087 0.346589L1.74953 0.414837L1.83451 0.493356L1.91571 0.581316L1.99303 0.67786L2.06642 0.782144L2.13573 0.893295L2.20089 1.01049L2.26182 1.13285L2.31842 1.25958L2.32036 1.26444"/><path id="shape011" transform="matrix(0.90469177232278 0.426066542967966 -0.426066542967966 0.90469177232278 21.4505097749057 27.4584045617275)" fill="transparent" fill-rule="evenodd" d="M0.821791 0.714764L0.816596 0.653917L0.803368 0.562311L0.785395 0.475332L0.762979 0.393608L0.73644 0.31779L0.70608 0.248509L0.672214 0.186396L0.635159 0.132097L0.595214 0.0862358L0.552698 0.0494646L0.507921 0.0224071L0.461197 0.00570905L0.412834 0L0.364467 0.00570905L0.317743 0.0224071L0.272967 0.0494646L0.23045 0.0862358L0.190508 0.132097L0.15345 0.186396L0.119585 0.248509L0.0892257 0.31779L0.0626849 0.393608L0.040269 0.475332L0.0222952 0.562311L0.00906979 0.653917L0.00090754 0.749511L0 0.781704L0.0163554 0.710179L0.0355572 0.636913L0.0567002 0.566332L0.079768 0.498915L0.104744 0.435154L0.13161 0.375543L0.160357 0.320575L0.190966 0.270738L0.223418 0.226531L0.257703 0.188438L0.293801 0.156953L0.331698 0.132572L0.371381 0.115788L0.412834 0.107087L0.450253 0.109381L0.486534 0.11989L0.521648 0.138138L0.555552 0.16364L0.588222 0.19592L0.619623 0.234499L0.649718 0.278885L0.678479 0.328607L0.705862 0.383181L0.731852 0.442131L0.756401 0.504962L0.779479 0.571211L0.801057 0.640378L0.821101 0.712016L0.821791 0.714764"/><path id="shape15" transform="translate(-49.955548430167, -45.7513943627316)" fill="url(#gradient1)" fill-rule="evenodd" d="M68.5054 82.9382L67.9571 81.6145L66.6334 81.0662L65.3097 81.6145L64.7614 82.9382L65.1731 83.9322L65.0595 83.9506L64.4665 84.0582L62.6844 84.2005L62.5309 83.8517L61.6654 83.5142L61.2005 83.6955L61.3054 83.4422L61.1578 83.0859L60.8014 82.9382L60.445 83.0859L60.2974 83.4422L60.445 83.7986L60.7649 83.9311L60.6431 84.2079L60.1189 84.1174L58.4455 84.0502L57.2762 84.4924L56.477 85.6221L55.9141 87.6172L55.8791 87.8486L55.6954 88.447L55.4322 90.1384L55.2064 91.9027L55.0499 92.997L54.7697 94.6857L54.4569 96.1517L54.1207 97.6702L53.7596 99.2412L53.3717 100.865L52.9554 102.54L53.443 103.545L54.6616 103.974L65.0822 103.847L66.1486 103.816L67.0864 103.807L77.507 103.934L77.5182 103.93L77.5304 103.93L78.749 103.501L79.2366 102.496L78.8203 100.821L78.4324 99.1974L78.0713 97.6264L77.7352 96.1079L77.4223 94.6419L77.1309 93.2287L76.8593 91.8682L76.6056 90.5606L76.3683 89.3059L76.1454 88.1043L75.8962 86.7565L75.8707 86.4256L75.8697 86.4265L75.8674 86.1782L75.5485 85.693L75.5254 85.6382L75.5088 85.6326L75.4534 85.5482L74.5343 84.7448L73.423 84.1752L72.1766 83.8063L70.8523 83.6049L69.5071 83.5379L68.2434 83.5709L68.5054 82.9382M64.1854 75.8102L63.6793 74.5374L62.4574 74.0102L61.2355 74.5374L60.7294 75.8102L61.2355 77.083L62.4574 77.6102L63.6793 77.083L64.1854 75.8102M68.3614 66.7382L68.024 65.9746L67.2094 65.6582L66.3948 65.9746L66.0574 66.7382L66.3948 67.5019L67.2094 67.8182L68.024 67.5019L68.3614 66.7382M71.9614 73.6502L71.8349 73.3957L71.5294 73.2902L71.2239 73.3957L71.0974 73.6502L71.2239 73.9048L71.5294 74.0102L71.8349 73.9048L71.9614 73.6502"/><circle id="shape16" transform="translate(10.092451569833, 42.3766056372684)" r="0.936" cx="0.936" cy="0.936" fill="#ff99fd" fill-rule="evenodd"/><circle id="shape17" transform="translate(14.556451569833, 46.6966056372684)" r="0.936" cx="0.936" cy="0.936" fill="#ff99fd" fill-rule="evenodd"/><ellipse id="shape18" transform="translate(22.044451569833, 40.9366056372684)" rx="0.792000000000002" ry="0.791999999999994" cx="0.792000000000002" cy="0.791999999999994" fill="#ff99fd" fill-rule="evenodd"/><ellipse id="shape19" transform="translate(5.62845156983297, 54.3286056372684)" rx="1.224" ry="1.224" cx="1.224" cy="1.224" fill="#e449fc" fill-rule="evenodd"/><circle id="shape20" transform="translate(11.532451569833, 52.0246056372684)" r="0.576000000000001" cx="0.576000000000001" cy="0.576000000000001" fill="#e449fc" fill-rule="evenodd"/><ellipse id="shape21" transform="translate(23.196451569833, 52.6006056372684)" rx="1.512" ry="1.51199999999999" cx="1.512" cy="1.51199999999999" fill="#e449fc" fill-rule="evenodd"/><circle id="shape22" transform="translate(23.196451569833, 46.9846056372684)" r="0.431999999999995" cx="0.431999999999995" cy="0.431999999999995" fill="#e449fc" fill-rule="evenodd"/><ellipse id="shape23" transform="translate(15.564451569833, 53.3206056372684)" rx="1.152" ry="1.15199999999999" cx="1.152" cy="1.15199999999999" fill="#e449fc" fill-rule="evenodd"/><ellipse id="shape24" transform="translate(19.164451569833, 50.8726056372684)" rx="0.287999999999997" ry="0.288000000000004" cx="0.287999999999997" cy="0.288000000000004" fill="#e449fc" fill-rule="evenodd"/><ellipse id="shape25" transform="translate(22.044451569833, 56.0566056372684)" rx="0.432000000000002" ry="0.359999999999999" cx="0.432000000000002" cy="0.359999999999999" fill="#e449fc" fill-rule="evenodd"/><ellipse id="shape26" transform="translate(6.20445156983298, 52.7446056372684)" rx="0.216000000000001" ry="0.288000000000004" cx="0.216000000000001" cy="0.288000000000004" fill="#e449fc" fill-rule="evenodd"/><ellipse id="shape27" transform="translate(8.36445156983299, 48.8566056372684)" rx="0.215999999999998" ry="0.215999999999994" cx="0.215999999999998" cy="0.215999999999994" fill="#e449fc" fill-rule="evenodd"/><circle id="shape28" transform="translate(25.644451569833, 42.5206056372684)" r="0.288000000000004" cx="0.288000000000004" cy="0.288000000000004" fill="#e449fc" fill-rule="evenodd"/><circle id="shape29" transform="translate(13.548451569833, 56.7766056372684)" r="0.216000000000001" cx="0.216000000000001" cy="0.216000000000001" fill="#e449fc" fill-rule="evenodd"/><circle id="shape30" transform="translate(17.436451569833, 49.8646056372684)" r="0.216000000000001" cx="0.216000000000001" cy="0.216000000000001" fill="#e449fc" fill-rule="evenodd"/><circle id="shape31" transform="translate(23.196451569833, 51.8806056372684)" r="0.216000000000001" cx="0.216000000000001" cy="0.216000000000001" fill="#e449fc" fill-rule="evenodd"/><circle id="shape32" transform="translate(15.276451569833, 40.6486056372684)" r="0.216000000000001" cx="0.216000000000001" cy="0.216000000000001" fill="#ff99fd" fill-rule="evenodd"/><circle id="shape33" transform="translate(9.94845156983298, 47.9926056372684)" r="0.216000000000001" cx="0.216000000000001" cy="0.216000000000001" fill="#ff99fd" fill-rule="evenodd"/><ellipse id="shape34" transform="translate(7.78845156983298, 39.2086056372684)" rx="0.215999999999998" ry="0.216000000000001" cx="0.215999999999998" cy="0.216000000000001" fill="#ff99fd" fill-rule="evenodd"/><circle id="shape35" transform="translate(20.892451569833, 44.3926056372684)" r="0.216000000000001" cx="0.216000000000001" cy="0.216000000000001" fill="#ff99fd" fill-rule="evenodd"/><path id="shape012" transform="matrix(-0.999874678170803 0.0158274702199015 0.0158274702199015 0.999874678170803 29.0742408860961 25.1540300403322)" opacity="0.16" fill="#fdfffd" fill-rule="evenodd" d="M6.51097 0.00160732L11.134 0.333028C11.99 0.333028 11.9913 0.745241 11.9913 1.6576L12.136 31.9309C12.136 32.8432 11.5081 33.2925 10.6521 33.2925L1.54977 33.5852C0.693852 33.5852 -1.04815e-16 32.8456 9.25331e-33 31.9333C3.77004 10.6456 3.09828 -0.151576 6.51097 0.00160732Z"/><path id="shape013" transform="matrix(0.999874669985004 0.0158274700903252 -0.0158274700903252 0.999874669985004 3.11567749793864 25.1591635496961)" opacity="0.0600000000000001" fill="#fdfffd" fill-rule="evenodd" d="M6.51097 0.00160731L10.9951 0.167939C11.8511 0.167939 12.1868 0.574856 12.1868 1.48722L12.5067 32.2595C12.5067 33.1718 11.7063 33.2894 10.8503 33.2894L1.54977 33.5852C0.693852 33.5852 -1.04815e-16 32.8456 0 31.9333C3.77004 10.6456 3.09828 -0.151576 6.51097 0.00160731Z"/>
</svg>
