<?xml version="1.0" standalone="no"?>
<!DOCTYPE svg PUBLIC "-//W3C//DTD SVG 20010904//EN" "http://www.w3.org/TR/2001/REC-SVG-20010904/DTD/svg10.dtd">
<!-- Created using Krita: http://krita.org -->
<svg xmlns="http://www.w3.org/2000/svg" 
    xmlns:xlink="http://www.w3.org/1999/xlink"
    xmlns:krita="http://krita.org/namespaces/svg/krita"
    xmlns:sodipodi="http://sodipodi.sourceforge.net/DTD/sodipodi-0.dtd"
    width="96pt"
    height="96pt"
    viewBox="0 0 96 96">
<defs/>
<path id="shape0" transform="translate(0, -8.28103430175702)" opacity="0.1" fill="#ffffff" fill-rule="evenodd" d="M72.72 67.2L72.663 65.4993L72.4943 63.8294L72.2178 62.1939L71.837 60.5965L71.3556 59.0411L70.7774 57.5312L70.1059 56.0705L69.345 54.6628L68.4982 53.3117L67.5693 52.021L66.5619 50.7944L65.4797 49.6355L64.3264 48.548L63.1057 47.5357L61.8212 46.6023L60.4767 45.7514L59.0757 44.9867L57.6221 44.3121L57.6 44.3035L57.6 31.3361L58.1823 31.2056L59.2365 30.9116L60.1581 30.5899L60.9364 30.2432L61.5605 29.8741L62.0197 29.4854L62.3031 29.0798L62.3677 28.8L62.4 28.8L62.4 24L62.3031 23.5802L62.0197 23.1746L61.5605 22.7859L60.9364 22.4168L60.1581 22.0701L59.2365 21.7484L58.1823 21.4544L57.0065 21.1909L55.7197 20.9605L54.3328 20.7659L52.8565 20.6099L51.3018 20.4951L49.6793 20.4242L48 20.4L46.3207 20.4242L44.6982 20.4951L43.1435 20.6099L41.6672 20.7659L40.2803 20.9605L38.9935 21.1909L37.8177 21.4544L36.7635 21.7484L35.8419 22.0701L35.0636 22.4168L34.4395 22.7859L33.9803 23.1746L33.6969 23.5802L33.6 24L33.6 28.8L33.6323 28.8L33.6969 29.0798L33.9803 29.4854L34.4395 29.8741L35.0636 30.2432L35.8419 30.5899L36.7635 30.9116L37.8177 31.2056L38.4 31.3361L38.4 44.3035L38.3779 44.3121L36.9243 44.9867L35.5233 45.7514L34.1788 46.6023L32.8943 47.5357L31.6736 48.548L30.5203 49.6355L29.4381 50.7944L28.4307 52.021L27.5018 53.3117L26.655 54.6628L25.8941 56.0705L25.2226 57.5312L24.6444 59.0411L24.163 60.5965L23.7822 62.1939L23.5057 63.8294L23.337 65.4993L23.28 67.2L23.337 68.9007L23.5057 70.5706L23.7822 72.2061L24.163 73.8035L24.6444 75.3589L25.2226 76.8689L25.8941 78.3295L26.655 79.7372L27.5018 81.0883L28.4307 82.379L29.4381 83.6056L30.5203 84.7645L31.6736 85.852L32.8943 86.8643L34.1788 87.7977L35.5233 88.6486L36.9243 89.4133L38.3779 90.088L39.8805 90.669L41.4284 91.1527L43.0181 91.5353L44.6456 91.8132L46.3075 91.9827L48 92.04L49.6925 91.9827L51.3544 91.8132L52.9819 91.5353L54.5716 91.1527L56.1195 90.669L57.6221 90.088L59.0757 89.4133L60.4767 88.6486L61.8212 87.7977L63.1057 86.8643L64.3264 85.852L65.4797 84.7645L66.5619 83.6056L67.5693 82.379L68.4982 81.0883L69.345 79.7372L70.1059 78.3295L70.7774 76.8689L71.3556 75.3589L71.837 73.8035L72.2178 72.2061L72.4943 70.5706L72.663 68.9007L72.72 67.2"/><path id="shape1" transform="translate(32.0993433091628, 56.1709913740756)" fill="#59136a" fill-rule="evenodd" d="M37.5007 3.20696C18.2474 -2.85307 9.64907 1.01544 0 3.9048L20.7007 14.5114L35.1007 8.74141C35.459 8.74141 36.259 6.89659 37.5007 3.20696Z"/><path id="shape2" transform="translate(-14.4000003385424, -4.58205219745035)" fill="#bf1ee5" fill-rule="evenodd" d="M41.8766 57.2302L42.0285 57.4011L42.8484 58.2802L43.6969 59.1476L44.5723 60.0015L45.4734 60.8401L46.3985 61.6615L47.3463 62.464L48.3153 63.2457L49.304 64.0049L50.3111 64.7398L51.3349 65.4486L52.3741 66.1294L53.4273 66.7805L54.4928 67.4L55.5694 67.9863L56.6555 68.5374L57.7497 69.0516L58.8506 69.527L59.9565 69.9619L61.0662 70.3545L62.1782 70.703L63.2909 71.0055L64.403 71.2603L65.513 71.4656L66.6194 71.6196L67.7207 71.7204L68.8156 71.7663L69.9025 71.7555L70.98 71.6862L72.0466 71.5565L73.1009 71.3648L74.1414 71.1091L75.1667 70.7877L76.1753 70.3987L77.1658 69.9405L78.1366 69.4111L79.0864 68.8088L80.0136 68.1318L80.9169 67.3783L81.7947 66.5465L82.6457 65.6345L83.4683 64.6407L83.9985 63.92L84 63.96L83.935 65.648L83.7433 67.3005L83.4295 68.9127L82.9986 70.4797L82.4554 71.9968L81.8046 73.4591L81.051 74.8619L80.1994 76.2004L79.2547 77.4697L78.2217 78.6651L77.1051 79.7817L75.9097 80.8147L74.6404 81.7594L73.3019 82.611L71.8991 83.3646L70.4368 84.0154L68.9197 84.5586L67.3527 84.9895L65.7405 85.3033L64.088 85.495L62.4 85.56L60.712 85.495L59.0595 85.3033L57.4473 84.9895L55.8803 84.5586L54.3632 84.0154L52.9009 83.3646L51.4981 82.611L50.1596 81.7594L48.8903 80.8147L47.6949 79.7817L46.5783 78.6651L45.5453 77.4697L44.6006 76.2004L43.749 74.8619L42.9954 73.4591L42.3446 71.9968L41.8014 70.4797L41.3705 68.9127L41.0567 67.3005L40.865 65.648L40.8 63.96L40.865 62.272L41.0567 60.6195L41.3705 59.0073L41.8014 57.4403L41.8766 57.2302"/><path id="shape3" transform="translate(-14.4000003385424, -4.58205219745035)" fill="#a020be" fill-rule="evenodd" d="M73.5864 82.43L72.9713 80.9851L70.8347 80.124L68.698 80.9851L67.813 83.064L68.4986 84.6744L68.9197 84.5586L70.4368 84.0154L71.8991 83.3646L73.3019 82.611L73.5864 82.43"/><ellipse id="shape4" transform="translate(31.7399996358299, 64.4779455436467)" rx="3.02166898831694" ry="2.94000225890296" cx="3.02166898831694" cy="2.94000225890296" fill="#a020be" fill-rule="evenodd"/><path id="shape5" transform="translate(-14.5800003495257, -4.40205218646703)" fill="#4b1c56" fill-rule="evenodd" d="M70.1033 70.344L69.6885 68.3448L68.5573 66.7123L66.8794 65.6116L64.8247 65.208L62.77 65.6116L61.0921 66.7123L59.9608 68.3448L59.6927 69.6368L60.2018 69.837L61.3115 70.2296L62.4235 70.5781L63.5362 70.8806L64.6483 71.1354L65.7583 71.3407L66.8647 71.4947L67.966 71.5955L69.0609 71.6414L69.8357 71.6337L70.1033 70.344"/><path id="shape6" transform="translate(-14.4000003385424, -4.58205219745035)" fill="#a020be" fill-rule="evenodd" d="M59.5141 69.6656L59.3413 70.4984L59.7562 72.4976L60.8874 74.1301L62.5653 75.2308L64.62 75.6344L66.6747 75.2308L68.3526 74.1301L69.4838 72.4976L69.6633 71.6329L68.8091 71.6414L67.7143 71.5955L66.6129 71.4947L65.5065 71.3407L64.3966 71.1354L63.2845 70.8806L62.1718 70.5781L61.0598 70.2296L59.9501 69.837L59.5141 69.6656"/><path id="shape7" transform="translate(-19.2, -9.53896434348443)" opacity="0.2" fill="#ffffff" fill-rule="evenodd" d="M91.92 68.58L91.863 66.8793L91.6943 65.2094L91.4178 63.5739L91.037 61.9765L90.5556 60.4211L89.9774 58.9112L89.3059 57.4505L88.545 56.0428L87.6982 54.6917L86.7693 53.401L85.7619 52.1744L84.6797 51.0155L83.5264 49.928L82.3057 48.9157L81.0212 47.9823L79.6767 47.1314L78.2757 46.3667L76.8221 45.6921L76.8 45.6835L76.8 32.7161L77.3823 32.5856L78.4365 32.2916L79.3581 31.9699L80.1364 31.6232L80.7605 31.2541L81.2197 30.8654L81.5031 30.4598L81.5677 30.18L81.6 30.18L81.6 25.38L81.5031 24.9602L81.2197 24.5546L80.7605 24.1659L80.1364 23.7968L79.3581 23.4501L78.4365 23.1284L77.3823 22.8344L76.2065 22.5709L74.9197 22.3405L73.5328 22.1459L72.0565 21.9899L70.5018 21.8751L68.8793 21.8042L67.2 21.78L65.5207 21.8042L63.8982 21.8751L62.3435 21.9899L60.8672 22.1459L59.4803 22.3405L58.1935 22.5709L57.0177 22.8344L55.9635 23.1284L55.0419 23.4501L54.2636 23.7968L53.6395 24.1659L53.1803 24.5546L52.8969 24.9602L52.8 25.38L52.8 30.18L52.8323 30.18L52.8969 30.4598L53.1803 30.8654L53.6395 31.2541L54.2636 31.6232L55.0419 31.9699L55.9635 32.2916L57.0177 32.5856L57.6 32.7161L57.6 45.6835L57.5779 45.6921L56.1243 46.3667L54.7233 47.1314L53.3788 47.9823L52.0943 48.9157L50.8736 49.928L49.7203 51.0155L48.6381 52.1744L47.6307 53.401L46.7018 54.6917L45.855 56.0428L45.0941 57.4505L44.4226 58.9112L43.8444 60.4211L43.363 61.9765L42.9822 63.5739L42.7057 65.2094L42.537 66.8793L42.48 68.58L42.537 70.2807L42.7057 71.9506L42.9822 73.5861L43.363 75.1835L43.8444 76.7389L44.4226 78.2489L45.0941 79.7095L45.855 81.1172L46.7018 82.4683L47.6307 83.759L48.6381 84.9856L49.7203 86.1445L50.8736 87.232L52.0943 88.2443L53.3788 89.1777L54.7233 90.0286L56.1243 90.7933L57.5779 91.468L59.0805 92.049L60.6284 92.5327L62.2181 92.9153L63.8456 93.1932L65.5075 93.3627L67.2 93.42L68.8925 93.3627L70.5544 93.1932L72.1819 92.9153L73.7716 92.5327L75.3195 92.049L76.8221 91.468L78.2757 90.7933L79.6767 90.0286L81.0212 89.1777L82.3057 88.2443L83.5264 87.232L84.6797 86.1445L85.7619 84.9856L86.7693 83.759L87.6982 82.4683L88.545 81.1172L89.3059 79.7095L89.9774 78.2489L90.5556 76.7389L91.037 75.1835L91.4178 73.5861L91.6943 71.9506L91.863 70.2807L91.92 68.58M88.8 68.76L88.735 67.072L88.5433 65.4195L88.2295 63.8073L87.7986 62.2403L87.2554 60.7232L86.6046 59.2609L85.851 57.8581L84.9994 56.5196L84.0547 55.2503L83.0217 54.0549L81.9051 52.9383L80.7097 51.9053L79.4404 50.9606L78.1019 50.109L76.6991 49.3554L75.2368 48.7046L73.935 48.2385L73.935 48.2651L72.8981 48.4791L71.8615 48.6555L70.8251 48.7947L69.7892 48.8975L68.754 48.9644L67.7194 48.9962L66.6858 48.9934L65.6532 48.9567L64.6217 48.8868L63.5915 48.7842L62.5627 48.6497L61.5355 48.4837L60.51 48.2871L60.51 48.2223L59.1632 48.7046L57.7009 49.3554L56.2981 50.109L54.9596 50.9606L53.6903 51.9053L52.4949 52.9383L51.3783 54.0549L50.3453 55.2503L49.4006 56.5196L48.549 57.8581L47.7954 59.2609L47.1446 60.7232L46.6014 62.2403L46.1705 63.8073L45.8567 65.4195L45.665 67.072L45.6 68.76L45.665 70.448L45.8567 72.1005L46.1705 73.7127L46.6014 75.2797L47.1446 76.7968L47.7954 78.2591L48.549 79.6619L49.4006 81.0004L50.3453 82.2697L51.3783 83.4651L52.4949 84.5817L53.6903 85.6147L54.9596 86.5594L56.2981 87.411L57.7009 88.1646L59.1632 88.8154L60.6803 89.3586L62.2473 89.7895L63.8595 90.1033L65.512 90.295L67.2 90.36L68.888 90.295L70.5405 90.1033L72.1527 89.7895L73.7197 89.3586L75.2368 88.8154L76.6991 88.1646L78.1019 87.411L79.4404 86.5594L80.7097 85.6147L81.9051 84.5817L83.0217 83.4651L84.0547 82.2697L84.9994 81.0004L85.851 79.6619L86.6046 78.2591L87.2554 76.7968L87.7986 75.2797L88.2295 73.7127L88.5433 72.1005L88.735 70.448L88.8 68.76M73.44 45.7553L73.44 33.6L60.72 33.6L60.72 45.6994L61.5461 45.9053L62.5818 46.1217L63.6173 46.2958L64.6522 46.4273L65.6867 46.5157L66.7206 46.5607L67.7538 46.5618L68.7863 46.5187L69.8179 46.4309L70.8487 46.298L71.8785 46.1197L72.9073 45.8955L73.44 45.7553M76.8 25.68L76.6453 25.378L76.1994 25.0938L75.4893 24.8321L74.5422 24.5976L73.3852 24.3951L72.0453 24.2294L70.5498 24.1051L68.9256 24.0271L67.2 24L65.4744 24.0271L63.8502 24.1051L62.3547 24.2294L61.0148 24.3951L59.8578 24.5976L58.9107 24.8321L58.2006 25.0938L57.7547 25.378L57.6 25.68L57.7547 25.982L58.2006 26.2662L58.9107 26.5279L59.8578 26.7624L61.0148 26.9649L62.3547 27.1306L63.8502 27.2549L65.4744 27.3329L67.2 27.36L68.9256 27.3329L70.5498 27.2549L72.0453 27.1306L73.3852 26.9649L74.5422 26.7624L75.4893 26.5279L76.1994 26.2662L76.6453 25.982L76.8 25.68"/><path id="shape0" transform="matrix(0.999999968127478 0 0 0.999999968127478 23.2800007878887 12.1800011416737)" opacity="0.1" fill="#ffffff" fill-rule="evenodd" d="M49.44 46.8L49.383 45.0993L49.2143 43.4294L48.9378 41.7939L48.557 40.1965L48.0756 38.6411L47.4974 37.1312L46.8259 35.6705L46.065 34.2628L45.2182 32.9117L44.2893 31.621L43.2819 30.3944L42.1997 29.2355L41.0464 28.148L39.8257 27.1357L38.5412 26.2023L37.1967 25.3514L35.7957 24.5867L34.3421 23.9121L34.32 23.9035L34.32 10.9361L34.9023 10.8056L35.9565 10.5116L36.8781 10.1899L37.6564 9.8432L38.2805 9.4741L38.7397 9.0854L39.0231 8.6798L39.0877 8.4L39.12 8.4L39.12 3.6L39.0231 3.1802L38.7397 2.7746L38.2805 2.3859L37.6564 2.0168L36.8781 1.6701L35.9565 1.3484L34.9023 1.0544L33.7265 0.7909L32.4397 0.5605L31.0528 0.3659L29.5765 0.2099L28.0218 0.0951L26.3993 0.0242L24.72 0L23.0407 0.0242L21.4182 0.0951L19.8635 0.2099L18.3872 0.3659L17.0003 0.5605L15.7135 0.7909L14.5377 1.0544L13.4835 1.3484L12.5619 1.6701L11.7836 2.0168L11.1595 2.3859L10.7003 2.7746L10.4169 3.1802L10.32 3.6L10.32 8.4L10.3523 8.4L10.4169 8.6798L10.7003 9.0854L11.1595 9.4741L11.7836 9.8432L12.5619 10.1899L13.4835 10.5116L14.5377 10.8056L15.12 10.9361L15.12 23.9035L15.0979 23.9121L13.6443 24.5867L12.2433 25.3514L10.8988 26.2023L9.6143 27.1357L8.3936 28.148L7.2403 29.2355L6.1581 30.3944L5.1507 31.621L4.2218 32.9117L3.375 34.2628L2.6141 35.6705L1.9426 37.1312L1.3644 38.6411L0.883 40.1965L0.5022 41.7939L0.2257 43.4294L0.057 45.0993L0 46.8L0.057 48.5007L0.2257 50.1706L0.5022 51.8061L0.883 53.4035L1.3644 54.9589L1.9426 56.4689L2.6141 57.9295L3.375 59.3372L4.2218 60.6883L5.1507 61.979L6.1581 63.2056L7.2403 64.3645L8.3936 65.452L9.6143 66.4643L10.8988 67.3977L12.2433 68.2486L13.6443 69.0133L15.0979 69.688L16.6005 70.269L18.1484 70.7527L19.7381 71.1353L21.3656 71.4132L23.0275 71.5827L24.72 71.64L26.4125 71.5827L28.0744 71.4132L29.7019 71.1353L31.2916 70.7527L32.8395 70.269L34.3421 69.688L35.7957 69.0133L37.1967 68.2486L38.5412 67.3977L39.8257 66.4643L41.0464 65.452L42.1997 64.3645L43.2819 63.2056L44.2893 61.979L45.2182 60.6883L46.065 59.3372L46.8259 57.9295L47.4974 56.4689L48.0756 54.9589L48.557 53.4035L48.9378 51.8061L49.2143 50.1706L49.383 48.5007L49.44 46.8"/>
</svg>
