<?xml version="1.0" standalone="no"?>
<!DOCTYPE svg PUBLIC "-//W3C//DTD SVG 20010904//EN" "http://www.w3.org/TR/2001/REC-SVG-20010904/DTD/svg10.dtd">
<!-- Created using Krita: http://krita.org -->
<svg xmlns="http://www.w3.org/2000/svg" 
    xmlns:xlink="http://www.w3.org/1999/xlink"
    xmlns:krita="http://krita.org/namespaces/svg/krita"
    xmlns:sodipodi="http://sodipodi.sourceforge.net/DTD/sodipodi-0.dtd"
    width="36.0001pt"
    height="36.0001pt"
    viewBox="0 0 36.0001 36.0001">
<defs>
  <linearGradient id="gradient0" gradientUnits="objectBoundingBox" x1="0.998268486818858" y1="-0.00294627835955463" x2="0.0043311706988991" y2="1.00294627835956" spreadMethod="pad">
   <stop stop-color="#331934" offset="0" stop-opacity="1"/>
   <stop stop-color="#000000" offset="1" stop-opacity="0"/>
  </linearGradient>
  <linearGradient id="gradient1" gradientUnits="objectBoundingBox" x1="0.788488340974753" y1="0.0199404619961343" x2="0.302047159166867" y2="0.664913860871272" spreadMethod="pad">
   <stop stop-color="#a99ba1" offset="0" stop-opacity="0.63921568627451"/>
   <stop stop-color="#000000" offset="1" stop-opacity="0"/>
  </linearGradient>
 </defs>
<path id="shape0" transform="translate(11.4505768791176, 5.3304926227584)" fill="#e2d7d4" fill-rule="evenodd" d="M13.7195 4.79455L13.6003 3.57374L13.4314 2.46497L12.873 1.52418L11.9153 0.7804L10.5487 0.262663L8.76331 0L6.54949 0.0214437L3.87817 0.0210019L2.02011 0.552205L0.84277 1.48886L0.213583 2.70476L0 4.07372L0.0694661 5.46955L0.356818 6.85058L1.1539 8.25969L2.36325 9.57239L2.38488 9.58788L2.35523 10.1665L2.37077 10.9259L2.4311 11.8041L2.53346 12.7847L2.67512 13.8512L2.85334 14.9872L3.06536 16.1763L3.30845 17.4021L3.57987 18.6481L3.87686 19.8979L4.19669 21.1351L4.53661 22.3433L4.89388 23.5061L5.26575 24.607L5.64949 25.6296L6.34791 25.7699L7.13996 26.1115L7.99465 26.5589L8.88097 27.0165L9.76791 27.3886L10.6245 27.5796L11.4196 27.494L12.1224 27.0361L12.7018 26.1103L13.1268 24.621L13.3664 22.4727L13.3895 19.5696L13.103 18.7946L12.8629 17.8894L12.6644 16.868L12.5024 15.7441L12.3722 14.5315L12.2687 13.2439L12.187 11.8952L12.1577 11.2632L12.3677 11.1472L12.7895 9.78956L12.5231 8.93186L14.0345 7.85456L13.9445 6.32455L13.6745 4.85455"/><path id="shape1" transform="translate(7.66364720583123, 5.64002101407091)" fill="#40363b" fill-rule="evenodd" d="M5.7764 2.40001C5.7764 1.00825 4.67953 8.32667e-17 2.95639 0C1.23326 -8.32667e-17 0.0763816 1.30825 0.0763816 2.70001C-0.235215 5.99381 0.35307 7.69489 2.83639 5.22002C4.55953 5.22002 5.7764 3.79177 5.7764 2.40001Z"/><path id="shape2" transform="translate(11.7600438806647, 5.60922555692732)" fill="#40363b" fill-rule="evenodd" d="M6.90003 4.83081C8.27414 2.83265 8.7992 3.30733 6.24002 1.4108C6.26086 -0.365727 3.55746 0.0465566 2.64001 0.0307955C0.916875 0.0307955 2.11016e-16 2.45748 0 4.71081C-2.11016e-16 6.96414 1.39688 8.79083 3.12001 8.79083C4.84315 8.79083 6.90003 7.20414 6.90003 4.83081Z"/><path id="shape3" transform="translate(13.9200518645154, 11.5596779703262)" fill="#40363b" fill-rule="evenodd" d="M1.50001 1.64037C2.66319 1.34891 4.26454 -1.90017 4.86002 1.64037C5.52276 1.64037 6.24002 2.05763 6.24002 2.72038C4.61668 3.42329 1.95779 5.02066 5.64002 5.36039C5.64002 6.02313 5.52276 6.44039 4.86002 6.44039L1.50001 6.44039C0.837261 6.44039 0.240001 5.72313 2.22045e-16 3.92038C0.109206 2.79276 0.0448189 2.18592 0 1.52037C1.11022e-16 0.857627 0.837261 1.64037 1.50001 1.64037Z"/><path id="shape4" transform="translate(18.0000671642828, 5.40002011985512)" fill="#40363b" fill-rule="evenodd" d="M0.840003 0L3.54001 0.0600002C3.87139 0.0600002 4.92002 0.808632 4.92002 1.14C5.13066 1.92836 7.62544 1.49912 7.86003 3.48001C7.86003 3.81139 6.6914 3.72001 6.36002 3.72001L2.76001 3.48001C2.42864 3.48001 1.38001 3.15138 1.38001 2.82001L3.55271e-15 0.600002C3.59329e-15 0.26863 0.508631 0 0.840003 0Z"/><path id="shape5" transform="translate(20.8800777967731, 15.8400591045688)" fill="#40363b" fill-rule="evenodd" d="M0.840003 1.56001C1.76295 1.28295 2.85303 1.17303 2.88001 0L2.88001 2.88001C2.1046 2.73774 3.18829 3.57969 0 2.16001Z"/><path id="shape6" transform="translate(25.0200932219954, 9.12003398019976)" fill="none" stroke="#40363b" stroke-width="0.420001567166598" stroke-linecap="square" stroke-linejoin="miter" stroke-miterlimit="2" d="M0 0C0.29898 0.749237 0.3989 1.34918 0.0600002 1.62001"/><path id="shape7" transform="translate(24.3000905393481, 10.8600404632642)" fill="none" stroke="#40363b" stroke-width="0.420001567166598" stroke-linecap="square" stroke-linejoin="miter" stroke-miterlimit="2" d="M0.720003 0C1.65913 1.70274 1.47561 2.57652 0 3.60001"/><path id="shape8" transform="translate(23.7000883038086, 14.4600538765009)" fill="none" stroke="#40363b" stroke-width="0.420001567166598" stroke-linecap="square" stroke-linejoin="miter" stroke-miterlimit="2" d="M0.600002 0C0.859464 0.711895 0.536482 1.3073 0 1.86001"/><path id="shape9" transform="translate(19.9020540794961, 9.36003492542704)" fill="#2d263c" fill-rule="evenodd" d="M4.81804 2.04001C4.81804 0.913343 3.68979 6.93889e-17 2.29803 0C-0.129642 0.122458 -0.0346314 1.03775 0.0180201 2.40001C0.258021 3.07878 0.906266 3.86043 2.29803 4.08002C3.68979 4.08002 4.81804 3.16667 4.81804 2.04001Z"/><path id="shape10" transform="translate(20.4000761195205, 10.6200395690484)" fill="url(#gradient0)" fill-rule="evenodd" d="M2.04001 0.900003C2.04001 0.502357 1.6702 2.77556e-17 1.14 0C0.609809 -2.77556e-17 6.49281e-17 0.502357 0 0.900003C-6.49281e-17 1.29765 0.489808 1.80001 1.02 1.80001C1.5502 1.80001 2.04001 1.29765 2.04001 0.900003Z"/><path id="shape11" transform="translate(15.315989480583, 17.8233353848914)" fill="url(#gradient1)" fill-rule="evenodd" d="M0.764071 0.176732L2.68408 0.176732C3.08172 0.176732 3.40408 0.499088 3.40408 0.896734L3.40408 7.85676C3.40408 8.25441 3.08172 8.86297 2.68408 8.86297L2.68408 8.14172C2.8804 7.71746 1.73949 2.89664 1.73949 2.49899L0 0.176732C5.55112e-17 -0.220915 0.366424 0.176732 0.764071 0.176732Z"/><path id="shape12" transform="translate(18.9328553285263, 14.4886724811019)" fill="#4c2533" fill-rule="evenodd" d="M0.424266 0C1.87719 0.440027 3.47886 0.86821 4.70935 0.0848531C4.89747 0.0848531 5.00633 0.46949 5.00633 0.657612L4.82723 1.25076C4.82723 1.43888 4.67473 1.59139 4.48661 1.59139L0.753072 1.55918C0.564949 1.55918 -2.77556e-17 0.909374 0 0.721252L0.0272154 0.252007C0.0272154 0.0638845 0.236143 0 0.424266 0Z"/><path id="shape13" transform="translate(19.717746809933, 14.4000537314262)" fill="#aa8194" fill-rule="evenodd" d="M0.313557 1.38778e-17C1.46011 0.056926 2.64939 0.231355 3.69111 0C3.75254 3.76141e-18 3.93506 0.0696149 3.93506 0.131045L3.80234 0.608773C3.80234 0.670203 3.75254 0.720003 3.69111 0.720003L0.313557 0.720003C0.252127 0.720003 0.202328 0.670203 0.202328 0.608773L0 0.0886187C0 0.0271883 0.252127 1.01164e-17 0.313557 1.38778e-17Z"/><ellipse id="shape14" transform="translate(14.4000537314262, 7.68002865676065)" rx="1.32000492538074" ry="1.32000492538074" cx="1.32000492538074" cy="1.32000492538074" fill="#1f1c27" fill-rule="evenodd"/><path id="shape15" transform="translate(22.7550856780007, 7.92002955228442)" fill="#1f1c27" fill-rule="evenodd" d="M2.20501 1.30501C2.20501 0.77481 1.72147 3.24719e-17 1.125 6.03342e-33C0.528534 -3.24583e-17 7.63278e-17 0.129807 0 0.660003C0.270001 1.0102 0.393534 0.945004 0.975004 1.065C1.48147 1.29001 2.20501 1.8352 2.20501 1.30501Z"/><ellipse id="shape16" transform="translate(15.8400591045688, 8.64003223885573)" rx="0.360001343285655" ry="0.360001343285655" cx="0.360001343285655" cy="0.360001343285655" fill="#38334d" fill-rule="evenodd"/><path id="shape17" transform="translate(23.2950877112294, 8.5800323057458)" fill="#38334d" fill-rule="evenodd" d="M0.600002 0.405002C0.600002 0.272453 0.49255 6.93889e-18 0.360001 0C0.227453 -6.93889e-18 2.77556e-17 0.00245167 7.21911e-34 0.135001C-2.77556e-17 0.267549 0.242453 0.315001 0.375001 0.315001C0.50755 0.315001 0.600002 0.53755 0.600002 0.405002Z"/><path id="shape18" transform="translate(24.0001205209921, 21.7179244933167)" fill="#913715" fill-rule="evenodd" d="M6.71999 5.76218C7.09658 1.74751 2.50475 -0.0716666 0.659972 0.002157C-1.12944 0.002157 1.31997 2.60964 1.01997 5.64218C0.299971 9.51472 1.69057 12.1222 3.47998 12.1222C5.26939 12.1222 6.71999 9.27472 6.71999 5.76218Z"/><path id="shape19" transform="translate(10.3200385075221, 23.7600886568533)" fill="#913715" fill-rule="evenodd" d="M5.58002 4.86002C4.08002 0.0839374 5.9608 1.78552e-16 3.84001 0C1.71923 -1.78552e-16 2.59712e-16 2.36395 0 5.28002C-2.59712e-16 8.19609 9.09926 9.24004 11.22 9.24004C13.3408 9.24004 7.4696 8.97856 5.58002 4.86002Z"/><path id="shape20" transform="translate(3.42001283169333, 29.2801098573043)" fill="#913715" fill-rule="evenodd" d="M16.0201 5.04002C16.0201 2.52159 11.669 1.66533e-16 7.56003 0C3.45101 -1.66533e-16 4.44089e-16 4.2016 0 6.72002C-4.44089e-16 9.23845 4.47102 9.60004 8.58003 9.60004C12.689 9.60004 16.0201 7.55845 16.0201 5.04002Z"/><path id="shape21" transform="translate(27.9016018676054, 26.3751181621524)" fill="#913715" fill-rule="evenodd" d="M9.11854 5.725C9.11854 3.20657 8.23931 2.54499 5.27852 1.16498C0.150824 -1.51686 -1.47429 0.608672 1.43851 5.725C1.43851 8.24343 3.15774 10.285 5.27852 10.285C9.14544 11.0202 10.397 8.78171 9.11854 5.725Z"/><path id="shape22" transform="translate(18.0000671642828, 30.4992051679374)" fill="#913715" fill-rule="evenodd" d="M0 1.90092C1.19219 2.1584 1.05288 0.812934 3.30001 2.44092C5.12714 2.6289 5.6207 2.19032 7.20003 0.400911C8.44572 -1.01049 10.7669 1.74598 13.9201 1.90092L13.9201 7.18094L0 7.18094Z"/><path id="shape23" transform="translate(24.2989227729229, 22.2000832934479)" fill="#b25e3e" fill-rule="evenodd" d="M3.60118 3.42001C3.60118 1.76315 1.36156 9.71445e-17 0.30117 0C-0.759221 -9.71445e-17 1.32117 1.10315 1.32117 2.76001C1.32117 4.41687 1.04079 5.70002 2.10118 5.70002C1.12156 -1.62001 3.60118 5.07687 3.60118 3.42001Z"/><path id="shape24" transform="translate(11.2800423220762, 23.8200893716185)" fill="#b25e3e" fill-rule="evenodd" d="M3.00001 2.58001C3.00001 1.38707 3.33413 0.300001 2.94001 0C1.94589 -8.32667e-17 1.2174e-16 0.727068 0 1.92001C1.93535 1.03713 1.6897 1.31779 2.76001 3.60001C3.75413 3.60001 3.00001 3.77295 3.00001 2.58001Z"/><path id="shape25" transform="matrix(0.739106525695654 -0.673588556668019 0.673588556668019 0.739106525695654 24.2600924872697 33.0528908469847)" fill="#b25e3e" fill-rule="evenodd" d="M0.940244 0.541965C2.94325 1.36044 4.77548 0.735947 6.71192 0.444175C7.24212 0.444175 7.48768 -0.493983 7.68472 0.356587C7.68472 0.621684 7.18487 1.04144 6.65468 1.04144C5.12901 1.6856 3.92959 1.83261 0.802169 1.22792C0.271974 1.22792 0 0.680781 0 0.415683C0 0.150586 0.410049 0.541965 0.940244 0.541965Z"/>
</svg>
